<svg width="81" height="78" viewBox="0 0 81 78" fill="none" xmlns="http://www.w3.org/2000/svg">
<path d="M30.9524 21H7.28571C6.73343 21 6.28571 21.4477 6.28571 22V64.5992C6.28571 65.1515 6.73343 65.5992 7.28571 65.5992H66.9524C67.5047 65.5992 67.9524 65.1515 67.9524 64.5992V50.4444M67.5657 70H6.71161C6.43951 70 6.17915 70.1109 5.9906 70.3071L2.62696 73.8071C2.01625 74.4425 2.46662 75.5 3.34797 75.5H71.4141C72.3281 75.5 72.7631 74.3751 72.087 73.7602L68.2385 70.2602C68.0544 70.0928 67.8145 70 67.5657 70Z" stroke="black" stroke-width="4" stroke-linecap="round" stroke-linejoin="round"/>
<path d="M60.8706 9.26331C55.022 9.26331 50.2637 14.0216 50.2637 19.8702C50.2637 22.2638 51.0485 24.5254 52.5323 26.4094C52.8252 26.7824 53.1329 27.1393 53.4587 27.5173L53.4766 27.538C54.4734 28.6945 55.5041 29.8908 55.889 31.2993C55.976 31.6221 55.9884 32.241 55.9833 32.7178V33.528C55.9833 34.2695 56.5845 34.8707 57.326 34.8707H64.3567C65.0982 34.8707 65.6994 34.2695 65.6994 33.528V32.7083C65.6949 32.0856 65.7272 31.6313 65.7921 31.3955C66.1792 29.9962 67.3214 28.6526 68.3382 27.4567L68.3821 27.4052C68.6755 27.0604 68.9528 26.7347 69.2053 26.4137C70.6912 24.5286 71.4766 22.2659 71.4766 19.8702C71.4764 14.0216 66.7186 9.26331 60.8706 9.26331ZM67.0951 24.7527C66.874 25.034 66.6133 25.3403 66.3373 25.6645L66.2832 25.7281C65.0954 27.1252 63.7491 28.7087 63.2034 30.6812C63.1263 30.9612 63.0405 31.3801 63.0187 32.1853H58.6662C58.6476 31.3301 58.5604 30.8915 58.4808 30.5961C57.9347 28.5975 56.5908 27.038 55.5107 25.7846L55.4926 25.7635C55.1874 25.4096 54.8992 25.0752 54.643 24.7493C53.5348 23.3422 52.9491 21.6549 52.9491 19.8702C52.9491 15.5023 56.5027 11.9487 60.8706 11.9487C65.2379 11.9487 68.791 15.5023 68.791 19.8702C68.791 21.6569 68.2049 23.3447 67.0951 24.7527Z" fill="black"/>
<path d="M64.3566 35.2519H57.3261C56.5846 35.2519 55.9834 35.8531 55.9834 36.5946C55.9834 37.3361 56.5846 37.9373 57.3261 37.9373H64.3568C65.0983 37.9373 65.6995 37.3361 65.6995 36.5946C65.6995 35.8531 65.0981 35.2519 64.3566 35.2519Z" fill="black"/>
<path d="M62.5991 38.3146H59.0839C58.3424 38.3146 57.7412 38.9158 57.7412 39.6573C57.7412 40.3988 58.3424 41 59.0839 41H62.5991C63.3406 41 63.9418 40.3988 63.9418 39.6573C63.9418 38.9158 63.3406 38.3146 62.5991 38.3146Z" fill="black"/>
<path d="M79.3975 18.5275H74.7655C74.024 18.5275 73.4229 19.1287 73.4229 19.8702C73.4229 20.6117 74.024 21.2129 74.7655 21.2129H79.3975C80.139 21.2129 80.7401 20.6117 80.7401 19.8702C80.7401 19.1287 80.139 18.5275 79.3975 18.5275Z" fill="black"/>
<path d="M48.3178 19.8702C48.3178 19.1287 47.7167 18.5275 46.9751 18.5275H42.3427C41.6012 18.5275 41 19.1287 41 19.8702C41 20.6117 41.6012 21.2129 42.3427 21.2129H46.9751C47.7167 21.2129 48.3178 20.6117 48.3178 19.8702Z" fill="black"/>
<path d="M60.8705 7.31873C61.612 7.31873 62.2132 6.71756 62.2132 5.97604V1.34269C62.2132 0.601167 61.612 0 60.8705 0C60.129 0 59.5278 0.601167 59.5278 1.34269V5.97604C59.5278 6.71756 60.129 7.31873 60.8705 7.31873Z" fill="black"/>
<path d="M71.6443 28.7459C71.12 28.2215 70.27 28.2214 69.7454 28.7457C69.221 29.2701 69.2209 30.1201 69.7452 30.6446L73.0207 33.921C73.283 34.1833 73.6265 34.3143 73.9702 34.3143C74.3138 34.3143 74.6573 34.1833 74.9196 33.9212C75.444 33.3968 75.4441 32.5468 74.9198 32.0222L71.6443 28.7459Z" fill="black"/>
<path d="M50.0945 10.9936C50.3568 11.2559 50.7004 11.3871 51.0441 11.3871C51.3876 11.3871 51.7312 11.2561 51.9933 10.994C52.5178 10.4696 52.5178 9.61959 51.9936 9.09523L48.7194 5.81978C48.1951 5.29524 47.3451 5.29524 46.8207 5.81943C46.2962 6.34379 46.2962 7.1938 46.8203 7.71817L50.0945 10.9936Z" fill="black"/>
<path d="M50.0956 28.7459L46.8199 32.0222C46.2956 32.5466 46.2958 33.3968 46.8201 33.921C47.0822 34.1831 47.4259 34.3141 47.7695 34.3141C48.113 34.3141 48.4568 34.1831 48.719 33.9208L51.9947 30.6445C52.519 30.1201 52.5189 29.2699 51.9945 28.7457C51.4701 28.2215 50.6199 28.2215 50.0956 28.7459Z" fill="black"/>
<path d="M70.6961 11.3869C71.0396 11.3869 71.3833 11.2559 71.6456 10.9936L74.9203 7.71832C75.4447 7.19396 75.4445 6.34377 74.9202 5.81958C74.3958 5.29522 73.5456 5.29522 73.0214 5.81976L69.7467 9.09503C69.2223 9.61939 69.2225 10.4696 69.7469 10.9938C70.0088 11.256 70.3523 11.3869 70.6961 11.3869Z" fill="black"/>
</svg>
