<svg width="279" height="283" viewBox="0 0 236 239" fill="none" xmlns="http://www.w3.org/2000/svg">
<path d="M109.93 18.3662C116.897 14.3437 125.481 14.3437 132.448 18.3662L207.532 61.7159C214.499 65.7383 218.79 73.1721 218.79 81.2169V167.916C218.79 175.961 214.499 183.395 207.532 187.417L132.448 230.767C125.481 234.79 116.897 234.79 109.93 230.767L34.8458 187.417C27.8788 183.395 23.587 175.961 23.587 167.916L23.587 81.2169C23.587 73.1721 27.8788 65.7383 34.8458 61.7159L109.93 18.3662Z" stroke="#FF7990" stroke-width="3"/>
<path d="M102.424 6.93333C109.855 2.64297 119.011 2.64297 126.442 6.93333L201.526 50.2831C208.957 54.5735 213.535 62.5024 213.535 71.0831V157.783C213.535 166.363 208.957 174.292 201.526 178.583L126.442 221.932C119.011 226.223 109.855 226.223 102.424 221.932L27.34 178.583C19.9089 174.292 15.3311 166.363 15.3311 157.783L15.3311 71.0831C15.3311 62.5024 19.9089 54.5735 27.34 50.2831L102.424 6.93333Z" fill="white"/>
<path d="M102.424 6.93333C109.855 2.64297 119.011 2.64297 126.442 6.93333L201.526 50.2831C208.957 54.5735 213.535 62.5024 213.535 71.0831V157.783C213.535 166.363 208.957 174.292 201.526 178.583L126.442 221.932C119.011 226.223 109.855 226.223 102.424 221.932L27.34 178.583C19.9089 174.292 15.3311 166.363 15.3311 157.783L15.3311 71.0831C15.3311 62.5024 19.9089 54.5735 27.34 50.2831L102.424 6.93333Z" fill="white"/>
<path d="M102.424 6.93333C109.855 2.64297 119.011 2.64297 126.442 6.93333L201.526 50.2831C208.957 54.5735 213.535 62.5024 213.535 71.0831V157.783C213.535 166.363 208.957 174.292 201.526 178.583L126.442 221.932C119.011 226.223 109.855 226.223 102.424 221.932L27.34 178.583C19.9089 174.292 15.3311 166.363 15.3311 157.783L15.3311 71.0831C15.3311 62.5024 19.9089 54.5735 27.34 50.2831L102.424 6.93333Z" fill="white"/>
</svg>
