<?xml version="1.0" standalone="no"?>
<!DOCTYPE svg PUBLIC "-//W3C//DTD SVG 1.1//EN" "http://www.w3.org/Graphics/SVG/1.1/DTD/svg11.dtd">
<svg xmlns:dc="http://purl.org/dc/elements/1.1/" xmlns:cc="http://creativecommons.org/ns#" xmlns:rdf="http://www.w3.org/1999/02/22-rdf-syntax-ns#" xmlns:svg="http://www.w3.org/2000/svg" xmlns="http://www.w3.org/2000/svg" id="svg2147" version="1.1" viewBox="0 0 58.465084 15.677444" height="15.677444458007812" width="58.465084075927734">
  <g transform="translate(-501.69563,-83.065476)" id="layer1">
    <g transform="matrix(0.35277777,0,0,-0.35277777,509.53435,94.524404)" id="g1746">
      <path id="path1748" style="fill:#231f20;fill-opacity:1;fill-rule:nonzero;stroke:none" d="m 0,0 c -5.668,0 -10.262,4.595 -10.262,10.262 0,5.668 4.594,10.262 10.262,10.262 5.668,0 10.262,-4.594 10.262,-10.262 C 10.262,4.595 5.668,0 0,0 m 0,32.482 c -12.272,0 -22.22,-9.948 -22.22,-22.22 v -22.22 H 0 c 12.272,0 22.22,9.949 22.22,22.22 v 22.22 z"/>
    </g>
    <g transform="matrix(0.35277777,0,0,-0.35277777,524.15385,92.857664)" id="g1750">
      <path id="path1752" style="fill:#231f20;fill-opacity:1;fill-rule:nonzero;stroke:none" d="m 0,0 c -3.065,0 -5.55,2.485 -5.55,5.55 0,3.065 2.485,5.55 5.55,5.55 3.065,0 5.55,-2.485 5.55,-5.55 C 5.55,2.485 3.065,0 0,0 m 0,18.564 c -7.188,0 -13.014,-5.826 -13.014,-13.014 0,-7.188 5.826,-13.014 13.014,-13.014 7.188,0 13.015,5.826 13.015,13.014 0,7.188 -5.827,13.014 -13.015,13.014"/>
    </g>
    <g transform="matrix(0.35277777,0,0,-0.35277777,529.36473,94.639834)" id="g1754">
      <path id="path1756" style="fill:#231f20;fill-opacity:1;fill-rule:nonzero;stroke:none" d="m 0,0 c 0,-1.394 -1.13,-2.524 -2.525,-2.524 -1.394,0 -2.524,1.13 -2.524,2.524 0,1.395 1.13,2.525 2.524,2.525 C -1.13,2.525 0,1.395 0,0"/>
    </g>
    <g transform="matrix(0.35277777,0,0,-0.35277777,535.71219,92.714014)" id="g1758">
      <path id="path1760" style="fill:#231f20;fill-opacity:1;fill-rule:nonzero;stroke:none" d="m 0,0 h -5.01 v 5.041 5.04 H 0 c 2.767,0 5.01,-2.257 5.01,-5.04 C 5.01,2.257 2.767,0 0,0 m 0.256,17.541 h -12.5 V 5.041 -7.46 h 12.5 c 6.904,0 12.501,5.597 12.501,12.501 0,6.903 -5.597,12.5 -12.501,12.5"/>
    </g>
    <g transform="matrix(0.35277777,0,0,-0.35277777,540.86212,94.639834)" id="g1762">
      <path id="path1764" style="fill:#231f20;fill-opacity:1;fill-rule:nonzero;stroke:none" d="m 0,0 c 0,-1.394 -1.13,-2.524 -2.525,-2.524 -1.394,0 -2.524,1.13 -2.524,2.524 0,1.395 1.13,2.525 2.524,2.525 C -1.13,2.525 0,1.395 0,0"/>
    </g>
    <path id="path1766" style="fill:#231f20;fill-opacity:1;fill-rule:nonzero;stroke:none;stroke-width:0.35277778" d="m 545.85805,95.345708 h -3.0868 v -8.83673 h 3.0868 z"/>
    <g transform="matrix(0.35277777,0,0,-0.35277777,547.9352,94.639834)" id="g1768">
      <path id="path1770" style="fill:#231f20;fill-opacity:1;fill-rule:nonzero;stroke:none" d="m 0,0 c 0,-1.394 -1.13,-2.524 -2.525,-2.524 -1.394,0 -2.524,1.13 -2.524,2.524 0,1.395 1.13,2.525 2.524,2.525 C -1.13,2.525 0,1.395 0,0"/>
    </g>
    <g transform="matrix(0.35277777,0,0,-0.35277777,559.26995,93.749104)" id="g1772">
      <path id="path1774" style="fill:#231f20;fill-opacity:1;fill-rule:nonzero;stroke:none" d="m 0,0 c -1.394,0 -2.525,-1.13 -2.525,-2.525 0,-1.394 1.131,-2.524 2.525,-2.524 1.394,0 2.525,1.13 2.525,2.524 C 2.525,-1.13 1.394,0 0,0"/>
    </g>
    <g transform="matrix(0.35277777,0,0,-0.35277777,555.43063,91.676003)" id="g1776">
      <path id="path1778" style="fill:#231f20;fill-opacity:1;fill-rule:nonzero;stroke:none" d="m 0,0 h -5.135 -4.946 v 2.017 c 0,2.589 2.257,4.689 5.04,4.689 C -2.257,6.706 0,4.606 0,2.017 Z m -5.041,14.619 c -6.903,0 -12.5,-5.597 -12.5,-12.5 v -12.5 h 7.461 v 3.187 h 4.945 5.098 v -3.187 H 7.46 v 12.5 c 0,6.903 -5.597,12.5 -12.501,12.5"/>
    </g>
  </g>
</svg>